<svg xmlns="http://www.w3.org/2000/svg" viewBox="0 0 64 64" width="48" height="48"><path d="M21.495 39.143h-5.769c-.347 0-.607-.157-.751-.39-.153-.247-.161-.567 0-.879l6.13-10.749c.006-.014.006-.019 0-.033l-3.9-6.709c-.164-.317-.187-.631-.034-.879.144-.239.437-.363.784-.363h5.77c.884 0 1.319.569 1.604 1.079l3.967 6.871-6.227 10.941c-.294.532-.711 1.111-1.574 1.111zM49.02 13.259L36.248 35.841c-.007.016-.007.027 0 .037l8.131 14.863c.16.32.167.643.013.89-.148.238-.415.369-.765.369h-5.761c-.881 0-1.326-.586-1.61-1.101l-8.199-15.036L40.891 13.1c.309-.554.686-1.1 1.544-1.1h5.831c.346 0 .62.13.766.37.152.246.146.567-.012.889z"/></svg>